<svg xmlns="http://www.w3.org/2000/svg" width="445" height="332.952" viewBox="0 0 445 332.952"><defs><style>.a{fill:#d03642;opacity:0.545;}</style></defs><path class="a" d="M805.035,313.5c58.716,67.166,113.74,135.7,151.657,216.769,45.217,96.672-22.5,206.915-123.062,225.527-107,19.8-208.293-72.077-194.288-179.221,3.547-27.152,15.888-54.232,28.888-78.86,34.728-65.8,81.156-123.532,130.619-178.823C800.352,317.2,802.272,315.884,805.035,313.5ZM700.386,576.4c-9.535,36.387,9.344,80.064,43.992,103.329,37.4,25.113,88.522,24.01,123.362-2.661,33.928-25.977,50.055-67.188,39.255-100.668ZM804.211,401.322c-27.333,38.828-52,73.866-78.723,111.838h157.3Z" transform="translate(-313.498 970.992) rotate(-90)"/></svg>