<svg xmlns="http://www.w3.org/2000/svg" width="355.921" height="475.698" viewBox="0 0 355.921 475.698">
  <path id="Path_1" data-name="Path 1" d="M816.555,313.5c62.766,71.8,121.586,145.064,162.119,231.723,48.337,103.341-24.055,221.189-131.551,241.085C732.738,807.472,624.46,709.256,639.431,594.721c3.792-29.025,16.984-57.973,30.881-84.3,37.123-70.335,86.755-132.053,139.63-191.159C811.549,317.46,813.6,316.049,816.555,313.5ZM704.687,594.531c-10.193,38.9,9.988,85.588,47.026,110.458,39.984,26.845,94.629,25.666,131.872-2.845,36.269-27.769,53.508-71.823,41.963-107.613ZM815.674,407.381c-29.219,41.507-55.584,78.962-84.154,119.553H899.669Z" transform="translate(-638.04 -313.498)" fill="#4888cd" opacity="0.068"/>
</svg>
